<mxfile host="app.diagrams.net" modified="2022-09-25T04:12:36.966Z" agent="5.0 (Windows NT 10.0; Win64; x64) AppleWebKit/537.36 (KHTML, like Gecko) Chrome/105.0.0.0 Safari/537.36" etag="4TGEW3yFhckwl0kz76rP" version="20.3.6" type="github">
  <diagram name="Page-1" id="c37626ed-c26b-45fb-9056-f9ebc6bb27b6">
    <mxGraphModel dx="2062" dy="1114" grid="1" gridSize="10" guides="1" tooltips="1" connect="1" arrows="1" fold="1" page="1" pageScale="1" pageWidth="1100" pageHeight="850" background="none" math="0" shadow="0">
      <root>
        <mxCell id="0" />
        <mxCell id="1" parent="0" />
        <mxCell id="8IVKxD9z1tIuyVHuPr6r-1" value="" style="whiteSpace=wrap;html=1;aspect=fixed;fillColor=#f5f5f5;fontColor=#333333;strokeColor=#666666;" parent="1" vertex="1">
          <mxGeometry x="140" y="40" width="790" height="790" as="geometry" />
        </mxCell>
        <mxCell id="P6cCtplbcQQ8siC9VNqL-2" value="" style="rounded=0;whiteSpace=wrap;html=1;fontSize=18;" parent="1" vertex="1">
          <mxGeometry x="453" y="100" width="340" height="450" as="geometry" />
        </mxCell>
        <mxCell id="ysjsQZ4jRijTFE-vf46w-14" value="" style="rounded=0;whiteSpace=wrap;html=1;fontSize=18;fillColor=#9999FF;" vertex="1" parent="1">
          <mxGeometry x="468" y="297" width="310" height="207.5" as="geometry" />
        </mxCell>
        <mxCell id="8IVKxD9z1tIuyVHuPr6r-3" value="" style="rounded=0;whiteSpace=wrap;html=1;" parent="1" vertex="1">
          <mxGeometry x="160" y="90" width="200" height="460" as="geometry" />
        </mxCell>
        <mxCell id="8IVKxD9z1tIuyVHuPr6r-12" style="edgeStyle=orthogonalEdgeStyle;rounded=0;orthogonalLoop=1;jettySize=auto;html=1;exitX=1;exitY=0.5;exitDx=0;exitDy=0;fontSize=18;" parent="1" source="8IVKxD9z1tIuyVHuPr6r-5" target="8IVKxD9z1tIuyVHuPr6r-11" edge="1">
          <mxGeometry relative="1" as="geometry" />
        </mxCell>
        <mxCell id="ysjsQZ4jRijTFE-vf46w-3" value="直通" style="edgeLabel;html=1;align=center;verticalAlign=middle;resizable=0;points=[];" vertex="1" connectable="0" parent="8IVKxD9z1tIuyVHuPr6r-12">
          <mxGeometry x="-0.1375" y="-1" relative="1" as="geometry">
            <mxPoint as="offset" />
          </mxGeometry>
        </mxCell>
        <mxCell id="8IVKxD9z1tIuyVHuPr6r-5" value="DSM&amp;nbsp; 2.112" style="rounded=0;whiteSpace=wrap;html=1;fontSize=18;" parent="1" vertex="1">
          <mxGeometry x="200" y="140" width="120" height="40" as="geometry" />
        </mxCell>
        <mxCell id="8IVKxD9z1tIuyVHuPr6r-14" style="edgeStyle=orthogonalEdgeStyle;rounded=0;orthogonalLoop=1;jettySize=auto;html=1;exitX=1;exitY=0.5;exitDx=0;exitDy=0;entryX=0;entryY=0.5;entryDx=0;entryDy=0;fontSize=18;" parent="1" source="8IVKxD9z1tIuyVHuPr6r-6" target="8IVKxD9z1tIuyVHuPr6r-10" edge="1">
          <mxGeometry relative="1" as="geometry" />
        </mxCell>
        <mxCell id="ysjsQZ4jRijTFE-vf46w-4" value="直通" style="edgeLabel;html=1;align=center;verticalAlign=middle;resizable=0;points=[];" vertex="1" connectable="0" parent="8IVKxD9z1tIuyVHuPr6r-14">
          <mxGeometry x="-0.2308" y="-4" relative="1" as="geometry">
            <mxPoint as="offset" />
          </mxGeometry>
        </mxCell>
        <mxCell id="8IVKxD9z1tIuyVHuPr6r-6" value="MOVIE &lt;br&gt;2.113" style="rounded=0;whiteSpace=wrap;html=1;fontSize=18;" parent="1" vertex="1">
          <mxGeometry x="200" y="320" width="120" height="40" as="geometry" />
        </mxCell>
        <mxCell id="ysjsQZ4jRijTFE-vf46w-16" style="edgeStyle=orthogonalEdgeStyle;rounded=0;orthogonalLoop=1;jettySize=auto;html=1;" edge="1" parent="1" source="8IVKxD9z1tIuyVHuPr6r-8" target="ysjsQZ4jRijTFE-vf46w-14">
          <mxGeometry relative="1" as="geometry" />
        </mxCell>
        <mxCell id="8IVKxD9z1tIuyVHuPr6r-8" value="JELLYFIN&amp;nbsp; 2.120" style="rounded=0;whiteSpace=wrap;html=1;fontSize=18;" parent="1" vertex="1">
          <mxGeometry x="200" y="380" width="120" height="40" as="geometry" />
        </mxCell>
        <mxCell id="8IVKxD9z1tIuyVHuPr6r-9" value="QA 2.114" style="rounded=0;whiteSpace=wrap;html=1;fontSize=18;" parent="1" vertex="1">
          <mxGeometry x="200" y="200" width="120" height="40" as="geometry" />
        </mxCell>
        <mxCell id="8IVKxD9z1tIuyVHuPr6r-10" value="3T" style="rounded=0;whiteSpace=wrap;html=1;fontSize=18;" parent="1" vertex="1">
          <mxGeometry x="480" y="310" width="260" height="60" as="geometry" />
        </mxCell>
        <mxCell id="8IVKxD9z1tIuyVHuPr6r-11" value="1T 照片" style="rounded=0;whiteSpace=wrap;html=1;fontSize=18;" parent="1" vertex="1">
          <mxGeometry x="480" y="135" width="120" height="50" as="geometry" />
        </mxCell>
        <mxCell id="8IVKxD9z1tIuyVHuPr6r-16" value="影视/data" style="rounded=0;whiteSpace=wrap;html=1;fontSize=18;" parent="1" vertex="1">
          <mxGeometry x="490" y="320" width="100" height="40" as="geometry" />
        </mxCell>
        <mxCell id="8IVKxD9z1tIuyVHuPr6r-18" value="1T 股票" style="rounded=0;whiteSpace=wrap;html=1;fontSize=18;" parent="1" vertex="1">
          <mxGeometry x="480" y="200" width="120" height="40" as="geometry" />
        </mxCell>
        <mxCell id="ysjsQZ4jRijTFE-vf46w-7" style="edgeStyle=orthogonalEdgeStyle;rounded=0;orthogonalLoop=1;jettySize=auto;html=1;entryX=0.5;entryY=0;entryDx=0;entryDy=0;" edge="1" parent="1" source="3Dcn3XCHYA_4gQgDeYZq-1" target="3Dcn3XCHYA_4gQgDeYZq-3">
          <mxGeometry relative="1" as="geometry" />
        </mxCell>
        <mxCell id="ysjsQZ4jRijTFE-vf46w-8" value="mount" style="edgeLabel;html=1;align=center;verticalAlign=middle;resizable=0;points=[];" vertex="1" connectable="0" parent="ysjsQZ4jRijTFE-vf46w-7">
          <mxGeometry x="-0.4649" y="3" relative="1" as="geometry">
            <mxPoint as="offset" />
          </mxGeometry>
        </mxCell>
        <mxCell id="3Dcn3XCHYA_4gQgDeYZq-1" value="Navidrome&lt;br&gt;2.121" style="rounded=0;whiteSpace=wrap;html=1;fontSize=18;" parent="1" vertex="1">
          <mxGeometry x="200" y="260" width="120" height="40" as="geometry" />
        </mxCell>
        <mxCell id="3Dcn3XCHYA_4gQgDeYZq-3" value="音乐" style="rounded=0;whiteSpace=wrap;html=1;fontSize=18;" parent="1" vertex="1">
          <mxGeometry x="630" y="320" width="100" height="40" as="geometry" />
        </mxCell>
        <mxCell id="r0YZ8x6e-TVagj7WAOkP-1" value="热备份" style="rounded=0;whiteSpace=wrap;html=1;fontSize=18;" parent="1" vertex="1">
          <mxGeometry x="455" y="560" width="330" height="230" as="geometry" />
        </mxCell>
        <mxCell id="hOoTdLg5OUvVZyMMm4zi-1" value="1T 照片" style="rounded=0;whiteSpace=wrap;html=1;fontSize=18;" parent="1" vertex="1">
          <mxGeometry x="475" y="650" width="120" height="50" as="geometry" />
        </mxCell>
        <mxCell id="ysjsQZ4jRijTFE-vf46w-1" value="单向同步" style="edgeStyle=orthogonalEdgeStyle;rounded=0;orthogonalLoop=1;jettySize=auto;html=1;exitX=0.5;exitY=0;exitDx=0;exitDy=0;" edge="1" parent="1" source="hOoTdLg5OUvVZyMMm4zi-2" target="hOoTdLg5OUvVZyMMm4zi-1">
          <mxGeometry relative="1" as="geometry" />
        </mxCell>
        <mxCell id="hOoTdLg5OUvVZyMMm4zi-2" value="300G 照片" style="rounded=0;whiteSpace=wrap;html=1;fontSize=18;" parent="1" vertex="1">
          <mxGeometry x="480" y="740" width="110" height="40" as="geometry" />
        </mxCell>
        <mxCell id="hOoTdLg5OUvVZyMMm4zi-3" value="12T冷备份" style="rounded=0;whiteSpace=wrap;html=1;fontSize=18;" parent="1" vertex="1">
          <mxGeometry x="800" y="100" width="120" height="690" as="geometry" />
        </mxCell>
        <mxCell id="hOoTdLg5OUvVZyMMm4zi-4" value="1T 照片" style="rounded=0;whiteSpace=wrap;html=1;fontSize=18;" parent="1" vertex="1">
          <mxGeometry x="800" y="670" width="120" height="60" as="geometry" />
        </mxCell>
        <mxCell id="hOoTdLg5OUvVZyMMm4zi-5" value="WIN11&lt;br&gt;2.110&lt;br style=&quot;font-size: 18px;&quot;&gt;偶尔启动" style="rounded=0;whiteSpace=wrap;html=1;fontSize=18;" parent="1" vertex="1">
          <mxGeometry x="160" y="560" width="200" height="230" as="geometry" />
        </mxCell>
        <mxCell id="hOoTdLg5OUvVZyMMm4zi-8" value="1.5T 视频" style="rounded=0;whiteSpace=wrap;html=1;fontSize=18;" parent="1" vertex="1">
          <mxGeometry x="475" y="570" width="290" height="50" as="geometry" />
        </mxCell>
        <mxCell id="ysjsQZ4jRijTFE-vf46w-2" value="500Gpve&lt;br&gt;容器备份" style="rounded=0;whiteSpace=wrap;html=1;fontSize=18;" vertex="1" parent="1">
          <mxGeometry x="655" y="650" width="110" height="50" as="geometry" />
        </mxCell>
        <mxCell id="ysjsQZ4jRijTFE-vf46w-5" value="4T" style="rounded=0;whiteSpace=wrap;html=1;fontSize=18;" vertex="1" parent="1">
          <mxGeometry x="480" y="422.5" width="260" height="55" as="geometry" />
        </mxCell>
        <mxCell id="ysjsQZ4jRijTFE-vf46w-6" value="影视/data" style="rounded=0;whiteSpace=wrap;html=1;fontSize=18;" vertex="1" parent="1">
          <mxGeometry x="495" y="435" width="100" height="30" as="geometry" />
        </mxCell>
        <mxCell id="ysjsQZ4jRijTFE-vf46w-10" value="直通" style="edgeStyle=orthogonalEdgeStyle;rounded=0;orthogonalLoop=1;jettySize=auto;html=1;" edge="1" parent="1" source="ysjsQZ4jRijTFE-vf46w-9">
          <mxGeometry relative="1" as="geometry">
            <mxPoint x="480" y="450" as="targetPoint" />
          </mxGeometry>
        </mxCell>
        <mxCell id="ysjsQZ4jRijTFE-vf46w-9" value="win11&lt;br&gt;22H2" style="rounded=0;whiteSpace=wrap;html=1;fontSize=18;" vertex="1" parent="1">
          <mxGeometry x="200" y="430" width="120" height="40" as="geometry" />
        </mxCell>
        <mxCell id="ysjsQZ4jRijTFE-vf46w-11" style="edgeStyle=orthogonalEdgeStyle;rounded=0;orthogonalLoop=1;jettySize=auto;html=1;exitX=1;exitY=0.5;exitDx=0;exitDy=0;fontSize=18;entryX=0;entryY=0.5;entryDx=0;entryDy=0;" edge="1" parent="1" source="8IVKxD9z1tIuyVHuPr6r-9" target="8IVKxD9z1tIuyVHuPr6r-18">
          <mxGeometry relative="1" as="geometry">
            <mxPoint x="330" y="175" as="sourcePoint" />
            <mxPoint x="480" y="240" as="targetPoint" />
          </mxGeometry>
        </mxCell>
        <mxCell id="ysjsQZ4jRijTFE-vf46w-12" value="直通" style="edgeLabel;html=1;align=center;verticalAlign=middle;resizable=0;points=[];" vertex="1" connectable="0" parent="ysjsQZ4jRijTFE-vf46w-11">
          <mxGeometry x="-0.1375" y="-1" relative="1" as="geometry">
            <mxPoint as="offset" />
          </mxGeometry>
        </mxCell>
      </root>
    </mxGraphModel>
  </diagram>
</mxfile>
